<svg id="one_color" height="512" viewBox="0 0 64 64" width="512" xmlns="http://www.w3.org/2000/svg"><path d="m57.065 19.935c0-.693-.338-1.386-.651-1.986-.625-1.196-1.267-2.324-1.518-3.666-.139-.741-.219-1.529-.154-2.284-.008.091-.62.403-.696.455-.573.391-1.129.807-1.661 1.252-1.799 1.506-3.449 3.771-3.449 6.228-.001 2.246 1.819 4.066 4.064 4.066s4.065-1.82 4.065-4.065z" fill="#38aaff"/><path d="m49 42c0 9.37-7.63 17-17 17s-17-7.63-17-17c0-1.43.12-2.84.35-4.2 2.53-1.81 5.32-3.41 7.65-3.8 0 0 2 3 5 3s3-5 8-5c0 0 1.17 2.92 3.96 4.3 1.41.7 3.13.47 4.29-.59.55-.5 1.25-1.07 2.1-1.62 1.37 2.67 2.65 5.44 2.65 7.91z" fill="#38aaff"/><g><path d="m32 64c12.131 0 22-9.869 22-22 0-3.752-1.719-7.354-3.479-10.724l-.923-1.757c-2.919-5.543-5.676-10.778-6.822-16.905-.818-4.374-1.073-8.146-.78-11.526 0-.001 0-.001 0-.002.048-.55-.359-1.034-.91-1.082-.423-.044-.804.193-.981.55-.396.354-1.888 1.185-2.467 1.508-.391.218-.691.388-.8.462-3.093 2.112-6.006 4.31-8.659 6.53-5.466 4.574-18.179 16.941-18.179 32.946 0 12.131 9.869 22 22 22zm-2.538-53.413c2.603-2.179 5.464-4.336 8.501-6.41.095-.063.336-.195.646-.368.492-.274.915-.514 1.277-.727-.065 2.986.24 6.248.923 9.899 1.201 6.424 4.026 11.789 7.018 17.47l.92 1.751c1.647 3.15 3.253 6.499 3.253 9.798 0 11.028-8.972 20-20 20s-20-8.972-20-20c0-15.161 12.212-27.019 17.462-31.413z"/><path d="m53 25c2.792 0 5.064-2.271 5.064-5.064 0-.91-.395-1.741-.765-2.449l-.18-.343c-.536-1.018-1.042-1.978-1.241-3.044-.145-.773-.19-1.431-.141-2.011v-.003c.047-.551-.36-1.035-.91-1.082-.323-.033-.624.101-.826.324-.09.057-.21.121-.298.17-.112.062-.197.113-.222.131-.62.423-1.205.863-1.739 1.312-1.145.957-3.808 3.557-3.808 6.995.002 2.793 2.274 5.064 5.066 5.064zm.027-10.526c.251-.21.515-.419.785-.623.028.2.061.405.101.616.255 1.363.856 2.505 1.437 3.608l.177.337c.272.521.538 1.067.538 1.523-.001 1.69-1.375 3.065-3.065 3.065s-3.064-1.375-3.064-3.064c0-1.801 1.155-3.842 3.091-5.462z"/><path d="m32 60c9.925 0 18-8.075 18-18 0-2.755-1.425-5.764-2.76-8.366-.129-.252-.358-.437-.631-.51-.274-.077-.564-.028-.801.126-.778.503-1.528 1.082-2.231 1.722-.851.776-2.125.953-3.172.432-2.397-1.186-3.466-3.752-3.475-3.775-.154-.38-.521-.629-.93-.629-3.308 0-4.813 1.942-5.912 3.361-.834 1.077-1.305 1.639-2.088 1.639-2.415 0-4.152-2.531-4.168-2.555-.219-.328-.609-.492-.997-.432-2.176.364-4.89 1.7-8.067 3.973-.215.154-.36.387-.404.646-.241 1.43-.364 2.899-.364 4.368 0 9.925 8.075 18 18 18zm-15.729-21.627c2.456-1.721 4.62-2.838 6.319-3.266.813.977 2.749 2.893 5.41 2.893 1.8 0 2.793-1.282 3.669-2.414.935-1.207 1.823-2.353 3.718-2.555.553 1.037 1.854 3.04 4.128 4.164 1.779.883 3.953.582 5.408-.745.34-.31.693-.604 1.055-.878 1.053 2.131 2.022 4.442 2.022 6.428 0 8.822-7.178 16-16 16s-16-7.178-16-16c0-1.218.091-2.437.271-3.627z"/><path d="m27.293 27.707c.195.195.451.293.707.293s.512-.098.707-.293l7.5-7.5c.391-.391.391-1.023 0-1.414s-1.023-.391-1.414 0l-7.5 7.5c-.391.391-.391 1.023 0 1.414z"/><path d="m28.5 22c1.378 0 2.5-1.121 2.5-2.5s-1.122-2.5-2.5-2.5-2.5 1.121-2.5 2.5 1.122 2.5 2.5 2.5zm0-3c.276 0 .5.225.5.5s-.224.5-.5.5-.5-.225-.5-.5.224-.5.5-.5z"/><path d="m33 26.5c0 1.379 1.122 2.5 2.5 2.5s2.5-1.121 2.5-2.5-1.122-2.5-2.5-2.5-2.5 1.121-2.5 2.5zm3 0c0 .275-.224.5-.5.5s-.5-.225-.5-.5.224-.5.5-.5.5.225.5.5z"/></g></svg>