<svg enable-background="new 0 0 512 512" height="512" viewBox="0 0 512 512" width="512" xmlns="http://www.w3.org/2000/svg">
 <style type="text/css">
    .arroz-color { fill: #7F8487; } 
  </style>
<g id="_x30_8_Rice"><g><path class="arroz-color" d="m225.752 284.869c-34.429 34.429-64.833 78.133-50.23 92.736 17.988 17.988 73.603-31.041 92.764-50.204 34.408-34.408 64.786-78.102 50.163-92.723-14.613-14.626-58.291 15.786-92.697 50.191zm35.023 35.021c-41.401 41.398-73.081 54.855-77.742 50.204-4.664-4.664 8.839-36.32 50.23-77.713 37.545-37.545 72.176-55.665 77.674-50.191 4.675 4.673-8.797 36.335-50.162 77.7z"/><path class="arroz-color" d="m385.507 309.473c-25.357 3.986-99.17 20.139-95.205 45.388 3.979 25.295 79.209 18.017 104.543 14.037 48.072-7.556 98.349-24.991 95.143-45.416-3.975-25.222-79.019-18.007-104.481-14.009zm7.688 48.931c-25.191 3.957-90.391 7.629-92.394-5.193-2.125-13.411 62.556-29.502 86.355-33.244 25.177-3.956 90.351-7.601 92.331 5.164 1.028 6.529-28.499 24.19-86.292 33.273z"/><path class="arroz-color" d="m510.779 480.119c4.503-25.133-68.829-42.871-94.147-47.411-47.922-8.59-101.171-8.575-104.812 11.752-3.647 20.356 46.272 38.87 94.194 47.457 25.197 4.516 100.243 13.407 104.765-11.798zm-188.501-33.783c2.582-14.404 71.472-6.934 92.477-3.17 23.374 4.189 87.894 22.042 85.567 35.08-2.129 11.931-60.804 8.88-92.43 3.214-57.618-10.325-86.782-28.619-85.614-35.124z"/><path class="arroz-color" d="m421.399 146.188c-46.869-13.189-99.848-18.322-105.456 1.556-5.597 19.904 42.298 43.16 89.167 56.343 24.705 6.952 98.444 23.118 105.409-1.606 6.936-24.626-64.611-49.4-89.12-56.293zm78.891 53.415c-1.784 6.365-36.001 10.095-92.305-5.74-56.346-15.853-83.601-36.883-81.811-43.243 3.425-12.177 63.863-2.223 92.352 5.792 22.854 6.432 85.345 30.443 81.764 43.191z"/><path class="arroz-color" d="m135.722 454.486c-2.884-.617-5.696 1.206-6.311 4.075-.617 2.869 1.209 5.693 4.075 6.311 18.686 4.021 61.411 11.393 67.502-6.681 6.596-19.531-39.972-45.266-86.036-60.911-24.385-8.252-97.319-27.946-105.373-3.953-5.343 15.739 23.909 33.389 41.821 42.509 2.604 1.336 5.81.288 7.143-2.324 1.331-2.614.29-5.813-2.324-7.143-29.753-15.15-37.578-26.689-36.577-29.644 4.077-12.121 64.364 1.301 91.898 10.616 55.379 18.81 81.49 41.214 79.381 47.455-1.131 3.378-16.613 7.992-55.199-.31z"/><path class="arroz-color" d="m75.415 435.287c-2.708-1.146-5.82.135-6.954 2.84-1.136 2.705.135 5.818 2.84 6.954 5.831 2.448 11.783 4.692 16.838 6.565 2.808 1.032 5.825-.434 6.827-3.138 1.017-2.752-.386-5.807-3.138-6.827-4.949-1.832-10.769-4.023-16.413-6.394z"/><path class="arroz-color" d="m198.98 174.086c-3.997 20.2-8.321 54.909 7.605 60.441 23.879 8.31 52.748-60.373 61.484-85.665 8.467-24.449 28.569-97.104 4.57-105.349-16.071-5.558-34.305 24.923-43.759 43.575-1.325 2.617-.28 5.815 2.337 7.141 2.627 1.328 5.815.278 7.141-2.337 15.798-31.182 27.766-39.427 30.821-38.333 12.167 4.163-1.585 64.212-11.153 91.831-12.742 36.894-37.928 82.692-47.95 79.103-3.001-1.043-7.338-14.662-.674-48.342.571-2.879-1.302-5.675-4.178-6.243-2.89-.581-5.673 1.302-6.244 4.178z"/><path class="arroz-color" d="m207.775 158.887c2.841.78 5.756-.895 6.531-3.714 1.772-6.443 3.499-12.175 5.281-17.526.929-2.783-.578-5.789-3.361-6.718-2.786-.939-5.792.578-6.718 3.361-1.842 5.53-3.623 11.438-5.447 18.065-.778 2.831.884 5.754 3.714 6.532z"/><path class="arroz-color" d="m96.813 18.577c-25.398 3.72-99.376 19.103-95.669 44.389 3.724 25.412 78.346 18.943 104.389 15.127 48.147-7.055 98.606-23.963 95.607-44.423-2.99-20.436-56.18-22.156-104.327-15.093zm7.18 49.006c-57.918 8.474-91.379.384-92.339-6.157-1.97-13.435 62.864-28.846 86.7-32.339 49.309-7.224 91.031-2.352 92.277 6.124.957 6.538-28.754 23.89-86.638 32.372z"/><path class="arroz-color" d="m26.809 169.145c-14.605 14.603 15.778 58.289 50.186 92.697 18.956 18.956 74.855 68.106 92.733 50.227 14.623-14.621-15.772-58.335-50.199-92.762-34.411-34.41-78.1-64.783-92.72-50.162zm135.407 135.413c-4.661 4.658-36.32-8.837-77.71-50.227-41.365-41.365-54.849-73.008-50.186-77.674 9.079-9.038 57.025 29.491 77.698 50.163 41.39 41.39 54.872 73.064 50.198 77.738z"/></g></g></svg>