<?xml version="1.0" encoding="UTF-8" standalone="no"?>
<svg
   version="1.1"
   width="0.42648318in"
   height="0.28000575in"
   viewBox="0 0 30.706826 20.160455"
   id="svg1480"
   xmlns="http://www.w3.org/2000/svg"
   xmlns:svg="http://www.w3.org/2000/svg">
  <defs
     id="defs1480" />
  <path
     d="m 15.353322,-18.067052 c -14.76409975,0 -27.6591,12.5432002 -27.6591,27.3073002 0,7.5405998 2.6276002,13.6167998 6.1090002,19.0582998 l 21.5500998,31.2326 21.5501,-31.2326 c 3.4813,-5.4415 6.1089,-11.5177 6.1089,-19.0582998 0,-14.7641 -12.8949,-27.3073002 -27.659,-27.3073002 z"
     style="fill:#000000;fill-rule:evenodd"
     id="path1003" />
  <g
     id="Layer1091"
     transform="translate(-1950.9136,137.58875)">
    <path
       d="m 1965.9586,-147.7377 a 20.4463,20.4463 0 0 1 20.4463,20.4463 20.4463,20.4463 0 1 1 -20.4463,-20.4463 z"
       style="fill:#ffffff;fill-rule:evenodd"
       id="path1113" />
    <path
       d="m 1961.0577,-140.1774 2.2104,1.6766 2.2103,1.6765 h -4.4207 -4.4208 l 2.2104,-1.6765 z"
       style="fill:#000000;fill-rule:evenodd"
       id="path1114" />
    <path
       d="m 1971.8012,-137.1534 2.2104,1.6765 2.2104,1.6765 h -4.4208 -4.4208 l 2.2104,-1.6765 z"
       style="fill:#000000;fill-rule:evenodd"
       id="path1115" />
    <path
       d="m 1956.6369,-136.1973 v 2.2264 h 8.8415 v -2.2264 z"
       style="fill:#000000;fill-rule:evenodd"
       id="path1116" />
    <path
       d="m 1967.3804,-133.1734 v 2.2264 h 8.8416 v -2.2264 z"
       style="fill:#000000;fill-rule:evenodd"
       id="path1117" />
    <path
       d="m 1956.6369,-133.2178 v 2.2264 h 8.8415 v -2.2264 z"
       style="fill:#000000;fill-rule:evenodd"
       id="path1118" />
    <path
       d="m 1967.3804,-130.1939 v 2.2265 h 8.8416 v -2.2265 z"
       style="fill:#000000;fill-rule:evenodd"
       id="path1119" />
    <path
       d="m 1956.6369,-130.2383 v 2.2264 h 8.8415 v -2.2264 z"
       style="fill:#000000;fill-rule:evenodd"
       id="path1120" />
    <path
       d="m 1967.3804,-127.2143 v 2.2264 h 8.8416 v -2.2264 z"
       style="fill:#000000;fill-rule:evenodd"
       id="path1121" />
    <path
       d="m 1956.6369,-127.2587 v 2.2264 h 8.8415 v -2.2264 z"
       style="fill:#000000;fill-rule:evenodd"
       id="path1122" />
    <path
       d="m 1967.3804,-124.2348 v 2.2264 h 8.8416 v -2.2264 z"
       style="fill:#000000;fill-rule:evenodd"
       id="path1123" />
    <path
       d="m 1956.6369,-125.3324 v 1.9378 h 8.8415 v -1.9378 z"
       style="fill:#000000;fill-rule:evenodd"
       id="path1124" />
    <path
       d="m 1980.6998,-118.9708 v 4.8468 h -28.6193 v -8.078 l 10.8476,-3.9235 z"
       style="fill:#000000;fill-rule:evenodd;stroke:#ffffff;stroke-width:0.9601;stroke-linecap:butt;stroke-linejoin:miter;stroke-dasharray:none"
       id="path1125" />
    <path
       d="m 1971.7718,-138.1276 v -3.4024 h -10.6846 v 0.6346"
       style="fill:#000000;fill-rule:evenodd;stroke:#000000;stroke-width:1.1999;stroke-linecap:round;stroke-linejoin:round;stroke-dasharray:none"
       id="path1126" />
  </g>
  <path
     d="m 15.353322,-18.067052 c -14.76409975,0 -27.6591,12.5432002 -27.6591,27.3073002 0,7.5405998 2.6276002,13.6167998 6.1090002,19.0582998 l 21.5500998,31.2326 21.5501,-31.2326 c 3.4813,-5.4415 6.1089,-11.5177 6.1089,-19.0582998 0,-14.7641 -12.8949,-27.3073002 -27.659,-27.3073002 z"
     style="fill:#000000;fill-rule:evenodd"
     id="path1128" />
  <g
     id="Layer1114"
     transform="translate(-1950.9136,137.58875)">
    <path
       d="m 1966.267,-148.5673 a 20.2188,20.2188 0 0 1 20.2188,20.2189 20.2188,20.2188 0 1 1 -20.2188,-20.2189 z"
       style="fill:#ffffff;fill-rule:evenodd"
       id="path1424" />
    <g
       id="Layer1115">
      <path
         d="m 1951.3936,-137.1087 v 17.5201 h 7.92 v -17.5201 z"
         style="fill:#ffffff;fill-rule:evenodd;stroke:#000000;stroke-width:0.9601;stroke-linecap:butt;stroke-linejoin:miter;stroke-dasharray:none"
         id="path1425" />
      <path
         d="m 1959.3136,-137.1087 v 17.5201 h 13.9068 v -17.5201 z"
         style="fill:#ffffff;fill-rule:evenodd;stroke:#000000;stroke-width:0.9601;stroke-linecap:butt;stroke-linejoin:miter;stroke-dasharray:none"
         id="path1426" />
      <path
         d="m 1973.2204,-137.1087 v 17.5201 h 7.92 v -17.5201 z"
         style="fill:#ffffff;fill-rule:evenodd;stroke:#000000;stroke-width:0.9601;stroke-linecap:butt;stroke-linejoin:miter;stroke-dasharray:none"
         id="path1427" />
      <path
         d="m 1953.1868,-119.5883 v 2.16 h 26.1601 v -2.16 z"
         style="fill:#000000;fill-rule:evenodd"
         id="path1428" />
      <path
         d="m 1957.6335,-129.4285 v 2.16 h 0.9598 v -2.16 z"
         style="fill:#000000;fill-rule:evenodd"
         id="path1429" />
      <path
         d="m 1973.9409,-129.4285 v 2.16 h 0.9599 v -2.16 z"
         style="fill:#000000;fill-rule:evenodd"
         id="path1430" />
      <path
         d="m 1959.9968,-129.4285 v 2.16 h 0.9598 v -2.16 z"
         style="fill:#000000;fill-rule:evenodd"
         id="path1431" />
    </g>
  </g>
  <path
     d="M -922.57398,-113.95405 V 997.96575 H 1313.506 v -1111.9198 z"
     style="fill:none;stroke:#000000;stroke-width:0.5669;stroke-linecap:butt;stroke-linejoin:miter;stroke-dasharray:none"
     id="path1480" />
</svg>
