<svg id="Line" height="512" viewBox="0 0 256 256" width="512" xmlns="http://www.w3.org/2000/svg">
 <style type="text/css">
    .cevada-color { fill: #7F8487; } 
  </style>
<path class="cevada-color" d="m73.6913 157.8221a8.14 8.14 0 0 0 -3.7828-.9582 8.3986 8.3986 0 0 0 -6.5759 3.3865c-2.2322 2.6963-10.6449 8.1778-15.6793 11.4576-.6311.4115-1.3341.8288-2.0781 1.27-5.818 3.4542-13.7854 8.185-19.25 26.4749-5.34 17.8782 3.2866 27.9611 9.2265 31.1a17.6756 17.6756 0 0 0 8.2838 1.9522h.0011c5.3115 0 13.3821-2.1423 21.6686-12.345 12.035-14.8188 11.455-24.0671 11.0306-30.82-.0537-.8634-.1053-1.6787-.1208-2.44-.1257-5.9979-.3352-16.037.6343-19.4006 1.7854-6.1889-1.7531-8.8295-3.358-9.6774zm-1.9266 8.1536c-1.1091 3.8484-1.0345 12.1481-.8486 21.049.0183.8677.073 1.7383.1311 2.66.3873 6.1738.87 13.8571-9.8108 27.0082-6.9228 8.5231-13.2827 10.3123-17.4 10.3123h-.0011a12.3136 12.3136 0 0 1 -5.7143-1.3149c-4.4564-2.3555-10.8464-10.2005-6.5259-24.6633 4.8491-16.2317 11.4689-20.1617 16.7879-23.32.7944-.4718 1.5453-.9176 2.28-1.3965 7.4518-4.855 14.3515-9.4685 16.9055-12.5533a3.1785 3.1785 0 0 1 2.34-1.3941 2.65 2.65 0 0 1 1.2134.3209c.4828.256 1.3819.731.6428 3.2917z"/><path class="cevada-color" d="m53.7039 180.9959c-.8234.5369-1.6591 1.0326-2.4707 1.5142-4.7169 2.8008-10.0627 5.9756-14.2871 20.1161l5.27 1.5743c3.6094-12.0826 7.6-14.4523 11.826-16.9619.8572-.5086 1.7445-1.0347 2.6652-1.6347 2.4067-1.5689 4.9586-3.2418 7.3122-4.8474l-3.0995-4.5435c-2.3112 1.577-4.834 3.2307-7.2161 4.7829z"/><path class="cevada-color" d="m190.3773 135.491c.6654-6.6851-2.9718-19.4468-20.8254-24.873a56.0926 56.0926 0 0 0 -16.2792-2.7514 34.7843 34.7843 0 0 0 -16.4232 4.1685c-.7793.376-1.5151.731-2.21 1.0315-5.5081 2.3807-14.7276 6.3656-18.21 6.737-5.233.558-7.433 4.133-7.7467 7.2921-.18 1.8055.0655 6.2138 6.2111 8.1463 3.343 1.0506 11.5968 6.7748 16.5279 10.1951.6193.4294 1.2713.9227 1.961 1.4451 4.567 3.4571 10.8217 8.192 24.7629 8.192 2.2032 0 4.5649-.1209 7.0189-.3591 17.3654-1.6851 24.4354-11.4089 25.2127-19.2241zm-25.7442 13.75c-2.2779.221-4.4607.3333-6.4877.3333-12.0941 0-17.2778-3.9241-21.443-7.0772-.7369-.558-1.433-1.085-2.1463-1.5794-7.3106-5.07-14.1893-9.7206-18.0131-10.9227-2.5426-.7992-2.4417-1.8108-2.3874-2.3549.1392-1.4029 1.0737-2.1775 2.8569-2.3676 3.9837-.4246 11.6434-3.6279 19.8123-7.1589.7971-.3443 1.5828-.7235 2.4154-1.1252 3.517-1.6975 7.504-3.6218 14.0325-3.6218a51.4806 51.4806 0 0 1 14.68 2.5134c14.4429 4.39 17.4512 14.05 16.9517 19.0663-.2071 2.0787-2.1568 12.537-20.2713 14.2947z"/><path class="cevada-color" d="m166.3835 120.6713c-14.1222-4.2923-19.7216-1.5893-24.6614.7952l2.3907 4.9532c4.4247-2.1356 8.6061-4.1524 20.6712-.4861 3.821 1.1618 6.6145 2.8327 8.0776 4.8321l4.4387-3.2479c-2.2032-3.0104-5.876-5.3138-10.9168-6.8465z"/><path class="cevada-color" d="m148.3656 178.5586c-.311-.6862-.6166-1.4437-.94-2.2459-2.5325-6.2742-6.0006-14.8672-23.2526-23.04a34.4074 34.4074 0 0 0 -14.6642-3.6319c-8.4869 0-14.5911 4.1524-17.4743 8.0381-4.68 6.3073-5.9866 18.2582 5.7331 31.183 12.823 14.14 22.0521 14.969 28.7912 15.574.8621.0773 1.6758.15 2.4235.249 5.9506.7852 15.91 2.099 19.0889 3.5685a10.4785 10.4785 0 0 0 4.3608 1.07h.0006a6.8935 6.8935 0 0 0 5.7121-2.9221c1.8928-2.55 2.6684-6.676-.8293-10.6077-2.3277-2.616-6.4715-11.7643-8.9498-17.235zm5.362 24.5653a1.45 1.45 0 0 1 -1.2955.7h-.0006a5.2129 5.2129 0 0 1 -2.0534-.5626c-3.6373-1.6811-11.8561-2.865-20.6771-4.0289-.861-.1136-1.7306-.1917-2.6507-.2742-6.1612-.5532-13.8289-1.2416-25.2086-13.7909-12.2257-13.482-6.6355-22.5333-5.39-24.211.72-.9711 4.7362-5.8153 13.0571-5.8153a28.9969 28.9969 0 0 1 12.3095 3.1023c15.31 7.2531 18.1919 14.3921 20.5068 20.1282.3459.8567.6725 1.6661 1.0328 2.4619 3.6706 8.1025 7.1855 15.6234 9.8479 18.6165 1.1916 1.3393 1.3624 2.5409.5218 3.6739z"/><path class="cevada-color" d="m119.757 162.8443c-4.761-2.2553-9.0278-3.02-12.6828-2.2736l1.1011 5.3888c2.4256-.4971 5.6176.145 9.227 1.8551 11.3969 5.4 13.135 9.7037 14.9746 14.2605l5.1-2.059c-2.054-5.0868-4.3818-10.8524-17.7199-17.1718z"/><path class="cevada-color" d="m91.8521 139.11c1.5748-2.7575 1.852-6.9464-2.0915-10.432-2.6238-2.32-7.8337-10.9084-10.9468-16.0413-.391-.6443-.7852-1.36-1.2026-2.1178-3.2646-5.9262-7.736-14.0424-25.84-20.0933a36.943 36.943 0 0 0 -11.6526-2.0491c-10.226 0-16.8964 5.3037-19.7286 10.2674-3.8919 6.8215-3.76 18.8431 9.422 30.2731 12.2676 10.6377 20.9006 12.0723 27.7272 12.0723.9642 0 1.8568-.0271 2.72-.0532.7369-.0223 1.4421-.0443 2.121-.0443l.3131.0016c6.0017.0679 16.0461.1813 19.3789 1.26a11.3463 11.3463 0 0 0 3.47.5992 6.9942 6.9942 0 0 0 6.3099-3.6426zm-4.7771-2.7256a1.5261 1.5261 0 0 1 -1.5324.868 5.9354 5.9354 0 0 1 -1.7768-.332c-3.8124-1.2337-12.1134-1.426-21.01-1.5265l-.3754-.0021c-.7326 0-1.4931.0226-2.2881.0468-.8223.025-1.672.0508-2.5523.0508h-.001c-5.8115 0-13.2226-1.2746-24.1243-10.7277-13.7505-11.9233-9.2829-21.5778-8.2479-23.3919 1.9722-3.4565 7.0716-7.4932 14.9515-7.4932a31.4884 31.4884 0 0 1 9.9091 1.7655c16.0671 5.37 19.7817 12.1126 22.7665 17.5307.4458.8094.8669 1.574 1.3181 2.3176 4.6143 7.607 9.0041 14.6548 12.006 17.3083 1.3437 1.1879 1.6569 2.3601.957 3.5857z"/><path class="cevada-color" d="m48.532 100.4567c-4.9983-1.67-9.3259-1.9188-12.8648-.74l1.7381 5.218c1.6387-.5463 4.5977-.861 9.3833.738 11.9609 3.9982 14.2006 8.0633 16.5714 12.3675l4.8178-2.6539c-2.6478-4.8046-5.6471-10.2503-19.6458-14.9296z"/><path class="cevada-color" d="m232.7718 139.048a20.3969 20.3969 0 0 0 -12.7832-4.21c-6.5463 0-13.0851 2.6864-19.4358 7.9847-14.6594 12.2305-15.8668 21.4183-16.7487 28.1271-.1128.857-.2191 1.6664-.35 2.42-1.03 5.9093-2.7532 15.8-4.3511 18.9138-2.4025 4.6807-.62 8.4812 1.85 10.4777a7.0509 7.0509 0 0 0 4.4526 1.635 9.16 9.16 0 0 0 5.7643-2.3623c2.7113-2.2185 12.0248-5.9823 17.5893-8.2312.6988-.2823 1.4684-.5567 2.2832-.847 6.3739-2.2717 15.103-5.3826 23.98-22.282 8.1135-15.4454 3.8585-26.6895-2.2506-31.6258zm-2.6189 29.0678c-7.8772 14.9975-15.1293 17.582-20.9564 19.6588-.8707.31-1.693.6034-2.4975.9286-8.249 3.3336-15.91 6.5361-19.0115 9.074a4.1272 4.1272 0 0 1 -2.2817 1.1188 1.5219 1.5219 0 0 1 -.9958-.413c-1.0973-.8868-1.2327-2.0934-.4142-3.6884 1.8284-3.5626 3.35-11.7208 4.8786-20.4942.1488-.8543.2626-1.7187.383-2.6339.8056-6.1333 1.809-13.7664 14.8188-24.6206 5.3351-4.451 10.689-6.708 15.9124-6.708a15.012 15.012 0 0 1 9.3269 2.9885c1.6245 1.3126 9.3012 8.6777.8374 24.7894z"/><path class="cevada-color" d="m207.2226 150.9852c-11.3319 9.4542-12.1435 15.6183-12.8594 21.0593l5.4532.7151c.6413-4.8716 1.2472-9.4727 10.93-17.5511 3.8736-3.2323 6.7434-4.0159 8.4691-4.104l-.2814-5.493c-3.7263.1906-7.6665 1.9985-11.7115 5.3737z"/><path class="cevada-color" d="m172.76 93.286c3.8731 4.5829 10.355 12.2533 11.7187 15.4779 1.4673 3.4724 4.2362 5.4638 7.5963 5.4638a8.4383 8.4383 0 0 0 1.6264-.1593c1.7805-.351 5.9292-1.8624 5.999-8.3029.0381-3.502 3.127-13.0584 4.9736-18.7722.2315-.7168.5151-1.4832.8153-2.2945 2.3472-6.3457 5.5618-15.0364-1.7026-32.69-7.006-17.024-18.13-18.8617-22.5865-18.8617a16.1633 16.1633 0 0 0 -3.1136.2938c-6.5914 1.299-17.7536 8.4753-17.7794 27.1337-.0263 19.0894 6.245 25.9112 10.8244 30.8924.5854.6374 1.1384 1.2389 1.6284 1.819zm6.39-54.4484a10.6547 10.6547 0 0 1 2.0507-.19c3.3494 0 11.7595 1.5058 17.5 15.4548 6.4475 15.6667 3.7764 22.8868 1.6306 28.6884-.3207.8666-.6235 1.6849-.8916 2.515-2.736 8.4643-5.1949 16.3937-5.2389 20.4-.0285 2.6644-1.0265 2.8609-1.5619 2.9665a2.9371 2.9371 0 0 1 -.5634.0556c-.7042 0-1.7333-.2181-2.53-2.1052-1.56-3.6894-6.8428-10.0928-12.5882-16.8915-.56-.6628-1.151-1.3054-1.7762-1.9857-4.1862-4.5542-9.3967-10.2217-9.3731-27.1627.0201-15.0939 8.3963-20.7706 13.342-21.7452z"/><path class="cevada-color" d="m182.7971 80.3508c-3.3252-3.6177-6.4663-7.0348-6.45-19.6461.0059-3.9931.7965-7.15 2.287-9.13l-4.3936-3.308c-2.2441 2.98-3.3859 7.162-3.3934 12.43-.02 14.76 4.1884 19.3373 7.9009 23.376z"/><path class="cevada-color" d="m100.0564 109.96c5.0359 0 10.4827-1.5249 16.1874-4.5321 16.8851-8.901 19.9843-17.6336 22.2471-24.01.29-.8157.5629-1.5861.8444-2.2854 2.2408-5.5682 5.9909-14.8876 8.2054-17.6016 4.0718-4.9909 1.8547-8.8084.7122-10.2186a7.7637 7.7637 0 0 0 -6.1085-2.9774 9.5413 9.5413 0 0 0 -4.3721 1.1427c-3.1126 1.6033-13.0045 3.3411-18.9192 4.38-.7417.1305-1.5517.2382-2.4094.3523-6.7074.8919-15.8931 2.1135-28.1 16.7887-11.933 14.3449-7.9578 27.0056-3.7281 32.2252 3.4182 4.2183 9.1905 6.7362 15.4408 6.7362zm-7.4851-35.4436c10.834-13.0238 18.4653-14.0387 24.5974-14.8543.9158-.1219 1.7811-.2369 2.64-.3878 8.7613-1.5391 16.9206-3.0725 20.4816-4.9068a4.1516 4.1516 0 0 1 1.8536-.5322 2.3547 2.3547 0 0 1 1.8353.94c.3438.4243.984 1.2142-.7 3.2785-2.5336 3.1048-5.7245 10.7709-9.0466 19.0249-.3238.8054-.6161 1.6285-.9254 2.5-2.0684 5.83-4.6433 13.0846-19.6287 20.984-4.9054 2.5862-9.4891 3.8973-13.6221 3.8973-6.8289 0-10.2749-3.5971-11.1681-4.6992-3.1738-3.9163-5.97-13.6408 3.683-25.2444z"/><path class="cevada-color" d="m100.7434 81.1745c8.0657-9.6953 12.6667-10.3074 17.5377-10.9549l-.7251-5.4522c-5.4377.7232-11.6015 1.5429-21.0407 12.89-3.3687 4.05-5.1708 7.9924-5.3577 11.7186l5.4936.275c.1235-2.4754 1.5388-5.4067 4.0922-8.4765z"/></svg>