<?xml version="1.0" encoding="UTF-8" standalone="no"?>
<svg
   version="1.1"
   width="0.29834241in"
   height="0.48741278in"
   viewBox="0 0 21.480679 35.09379"
   id="svg1480"
   xmlns="http://www.w3.org/2000/svg"
   xmlns:svg="http://www.w3.org/2000/svg">
  <defs
     id="defs1480" />
  <g
     id="Layer1008"
     transform="translate(-2769.0313,-532.43757)">
    <path
       d="m 2780.9507,566.3313 v -6.5293 h -7.3638 v -4.3206"
       style="fill:#000;fill-rule:evenodd;stroke:#000;stroke-width:2.4001;stroke-linecap:round;stroke-linejoin:round;stroke-dasharray:none"
       id="path145" />
    <path
       d="m 2780.9549,559.802 v -8.64 h 6.3168 v -4.0799"
       style="fill:#000;fill-rule:evenodd;stroke:#000;stroke-width:2.4001;stroke-linecap:round;stroke-linejoin:round;stroke-dasharray:none"
       id="path146" />
    <path
       d="m 2780.9549,551.162 0.077,-12.4832"
       style="fill:#000;fill-rule:evenodd;stroke:#000;stroke-width:2.4001;stroke-linecap:round;stroke-linejoin:round;stroke-dasharray:none"
       id="path147" />
    <path
       d="m 2770.2312,554.7611 h 6.7198"
       style="fill:#000;fill-rule:evenodd;stroke:#000;stroke-width:2.4001;stroke-linecap:round;stroke-linejoin:round;stroke-dasharray:none"
       id="path148" />
    <path
       d="m 2770.2312,551.6399 h 6.7198"
       style="fill:#000;fill-rule:evenodd;stroke:#000;stroke-width:2.4001;stroke-linecap:round;stroke-linejoin:round;stroke-dasharray:none"
       id="path149" />
    <path
       d="m 2770.2312,548.5187 h 6.7198"
       style="fill:#000;fill-rule:evenodd;stroke:#000;stroke-width:2.4001;stroke-linecap:round;stroke-linejoin:round;stroke-dasharray:none"
       id="path150" />
    <path
       d="m 2770.2312,545.3974 h 6.7198"
       style="fill:#000;fill-rule:evenodd;stroke:#000;stroke-width:2.4001;stroke-linecap:round;stroke-linejoin:round;stroke-dasharray:none"
       id="path151" />
    <path
       d="m 2775.0314,536.0377 h 12.0002"
       style="fill:#000;fill-rule:evenodd;stroke:#000;stroke-width:1.9199;stroke-linecap:round;stroke-linejoin:round;stroke-dasharray:none"
       id="path152" />
    <path
       d="m 2785.2318,543.7188 v 3.6022 h 4.0799 v -3.6022 q 0,-1.44 -1.44,-1.44 h -1.1999 q -1.44,0 -1.44,1.44 z"
       style="fill:#000;fill-rule:evenodd;stroke:#000;stroke-width:2.4001;stroke-linecap:round;stroke-linejoin:round;stroke-dasharray:none"
       id="path153" />
    <path
       d="m 2778.9917,534.3576 v 4.8002 h 4.0799 v -4.8002 q 0,-1.44 -1.44,-1.44 h -1.1999 q -1.44,0 -1.44,1.44 z"
       style="fill:#000;fill-rule:evenodd;stroke:#000;stroke-width:0.9601;stroke-linecap:round;stroke-linejoin:round;stroke-dasharray:none"
       id="path154" />
    <path
       d="m 2775.0314,533.8766 a 2.1611,2.1611 0 0 1 2.1611,2.1611 2.1611,2.1611 0 1 1 -2.1611,-2.1611 z"
       style="fill:#000;fill-rule:evenodd;stroke:#000;stroke-width:0.4799;stroke-linecap:round;stroke-linejoin:round;stroke-dasharray:none"
       id="path155" />
    <path
       d="m 2787.0316,533.8766 a 2.1611,2.1611 0 0 1 2.1611,2.1611 2.1611,2.1611 0 1 1 -2.1611,-2.1611 z"
       style="fill:#000;fill-rule:evenodd;stroke:#000;stroke-width:0.4799;stroke-linecap:round;stroke-linejoin:round;stroke-dasharray:none"
       id="path156" />
  </g>
</svg>
