<svg fill="none" height="64" viewBox="0 0 64 64" width="64" xmlns="http://www.w3.org/2000/svg"><g id="Home Weather Station"><path id="Union" clip-rule="evenodd" d="m11.9507 7.00119c-.6314-.61929-1.4964-1.00119-2.4507-1.00119-1.933 0-3.5 1.567-3.5 3.5s1.567 3.5 3.5 3.5c.9543 0 1.8193-.3819 2.4507-1.0012.0163.0008.0328.0012.0493.0012h2.7802l-.6 3h-3.1802c-.5523 0-1 .4477-1 1v4c0 .5523.4477 1 1 1h1v8c0 .5523.4477 1 1 1h9c.5523 0 1-.4477 1-1v-8h1.4869l1.8546 2.5832c.1879.2617.4902.4168.8123.4168h1.8462v28h-3c-.5523 0-1 .4477-1 1v4c0 .5523.4477 1 1 1h12c.5523 0 1-.4477 1-1v-4c0-.5523-.4477-1-1-1h-3v-28h7v3h-5c-.5523 0-1 .4477-1 1v3c0 .5523.4477 1 1 1h5v1c0 .5523.4477 1 1 1h3c.5523 0 1-.4477 1-1v-1h.323l1.7485 4.3714c.1519.3796.5196.6286.9285.6286h7c.328 0 .6351-.1608.8219-.4304s.2296-.6136.1144-.9207l-3-8c-.1463-.3903-.5195-.6489-.9363-.6489h-7v-3h6c.5523 0 1-.4477 1-1v-7c0-.5523-.4477-1-1-1h-2.2792l-.6064-1.8192 2.6856-3.5808c.2273-.30302.2638-.70843.0944-1.04721-.1694-.33879-.5156-.55279-.8944-.55279h-15c-.3788 0-.725.214-.8944.55279-.1694.33878-.1329.74419.0944 1.04721l2.6856 3.5808-.6064 1.8192h-3.2792v-3c0-.5523-.4477-1-1-1h-4c-.5523 0-1 .4477-1 1v3h-8.1802l-.6-3h2.7802c.0165 0 .033-.0004.0493-.0012.6314.6193 1.4964 1.0012 2.4507 1.0012 1.933 0 3.5-1.567 3.5-3.5s-1.567-3.5-3.5-3.5c-.9543 0-1.8193.3819-2.4507 1.0012-.0163-.00079-.0328-.0012-.0493-.0012h-11c-.0165 0-.033.0004-.0493.00119zm-3.9507 2.49881c0-.82843.67157-1.5 1.5-1.5.8284 0 1.5.67157 1.5 1.5 0 .8284-.6716 1.5-1.5 1.5-.82843 0-1.5-.6716-1.5-1.5zm39 19.5v1h1c.4089 0 .7766.249.9285.6286l1.7485 4.3714h4.88l-2.25-6zm-5 1v-1h-4v1zm-9-17v2h-2v-2zm12 11h-1v8h1zm7-2v-5h-40v2h13c.3221 0 .6245.1551.8123.4168l1.8546 2.5832zm-13-12h11l-1.5 2h-8zm1.3874 5h8.2252l-.3334-1h-7.5584zm-26.3874 13v-1h7v1zm7-4h-7v1h7zm-7-2v-1h7v1zm-1-12h9v-1h-9zm12.5-2c-.8284 0-1.5.67157-1.5 1.5 0 .8284.6716 1.5 1.5 1.5s1.5-.6716 1.5-1.5c0-.82843-.6716-1.5-1.5-1.5zm-7.3198 4h-1.3604l-.6 3h2.5604zm14.8198 12h-2v28h2zm-6 30h10v2h-10z" fill="rgb(0,0,0)" fill-rule="evenodd"/></g></svg>