<?xml version="1.0" encoding="UTF-8" standalone="no"?>

<svg
   version="1.1"
   viewBox="0 0 25.225741 27.481211"
   width="90%"
   id="svg1480"
   xmlns="http://www.w3.org/2000/svg"
   xmlns:svg="http://www.w3.org/2000/svg"
   style='padding-bottom: 5px; margin-left: -4px'
   >
  <defs
     id="defs1480" />
  <g id="Layer1100"
     transform="translate(-2879.7922,-19.306499)">
    <path
       d="m 2883.9798,21.3347 v 5.2801 h 20.6399 v -5.2801 z"
       style="fill:#000;fill-rule:evenodd;stroke:#000;stroke-width:0.216;stroke-linecap:butt;stroke-linejoin:round;stroke-dasharray:none"
       id="path1304" />
    <path
       d="m 2884.0297,30.6581 v 4.0799 h 20.6402 v -4.0799 z"
       style="fill:#000;fill-rule:evenodd;stroke:#000;stroke-width:0.216;stroke-linecap:butt;stroke-linejoin:round;stroke-dasharray:none"
       id="path1305" />
    <path
       d="m 2884.0297,37.978 v 2.16 h 20.88 v -2.16 z"
       style="fill:#000;fill-rule:evenodd;stroke:#000;stroke-width:0.216;stroke-linecap:butt;stroke-linejoin:round;stroke-dasharray:none"
       id="path1306" />
    <path
       d="m 2885.972,45.4655 -1.9423,-2.6706 v 3.8848 h 20.88 V 42.552 l -1.9422,2.9135 z"
       style="fill:#000;fill-rule:evenodd;stroke:#000;stroke-width:0.216;stroke-linecap:butt;stroke-linejoin:round;stroke-dasharray:none"
       id="path1307" />
    <path
       d="m 2897.7914,43.2944 v -0.9601 h -0.72 v 0.9601 l -0.4476,0.0011 v -0.9601 h -0.72 v 0.9601 h -0.4802 v -0.9601 h -0.72 v 0.9601 h -0.4799 v -0.9601 h -0.72 v 0.9601 h -0.4802 v -0.9601 h -0.72 v 0.9601 h -0.4799 l 0.01,-0.9598 -0.7571,-0.0014 v 0.9601 h -0.4802 v -0.9601 h -0.72 v 0.9601 l -0.3785,0.0054 v -0.9601 h -0.72 v 0.9601 h -0.4801 v -0.9601 h -0.72 v 0.9601 l -1.0976,-0.0054 -1.6433,-3.1201 h 19.2198 l -1.5143,3.1201 h -1.1457 v -0.9601 h -0.72 v 0.9601 h -0.4802 v -0.9601 h -0.72 v 0.9601 h -0.4799 v -0.9601 h -0.72 v 0.9601 z m -12.9595,-3.1201 h 19.2198"
       style="fill:none;fill-rule:evenodd;stroke:#000;stroke-width:0.216;stroke-linecap:butt;stroke-linejoin:round;stroke-dasharray:none"
       id="path1308" />
    <path
       d="m 2887.8199,19.6546 v 0.9601 l 1.6668,-0.0476 0.013,-0.9125 z"
       style="fill:#000;fill-rule:evenodd;stroke:#000;stroke-width:0.216;stroke-linecap:butt;stroke-linejoin:round;stroke-dasharray:none"
       id="path1309" />
    <path
       d="m 2897.1799,19.4145 h 4.5601 v 1.44 h -4.5601 v -1.1999 z"
       style="fill:#000;fill-rule:evenodd;stroke:#000;stroke-width:0.216;stroke-linecap:butt;stroke-linejoin:round;stroke-dasharray:none"
       id="path1310" />
    <path
       d="m 2887.8199,20.6147 h 1.6801 v -0.9601 h -1.6801 z"
       style="fill:none;fill-rule:evenodd;stroke:#000;stroke-width:0.216;stroke-linecap:butt;stroke-linejoin:round;stroke-dasharray:none"
       id="path1311" />
    <path
       d="m 2883.9798,21.3347 v 5.2801 h 20.6399 v -5.2801 z"
       style="fill:#000;fill-rule:evenodd;stroke:#000;stroke-width:0.216;stroke-linecap:butt;stroke-linejoin:round;stroke-dasharray:none"
       id="path1312" />
    <path
       d="m 2884.0297,30.6581 v 4.0799 h 20.6402 v -4.0799 z"
       style="fill:#000;fill-rule:evenodd;stroke:#000;stroke-width:0.216;stroke-linecap:butt;stroke-linejoin:round;stroke-dasharray:none"
       id="path1313" />
    <path
       d="m 2884.0297,37.978 v 2.16 h 20.88 v -2.16 z"
       style="fill:#000;fill-rule:evenodd;stroke:#000;stroke-width:0.216;stroke-linecap:butt;stroke-linejoin:round;stroke-dasharray:none"
       id="path1314" />
    <path
       d="m 2885.972,45.4655 -1.9423,-2.6706 v 3.8848 h 20.88 V 42.552 l -1.9422,2.9135 z"
       style="fill:#000;fill-rule:evenodd;stroke:#000;stroke-width:0.216;stroke-linecap:butt;stroke-linejoin:round;stroke-dasharray:none"
       id="path1315" />
    <path
       d="m 2897.7914,43.2944 v -0.9601 h -0.72 v 0.9601 l -0.4476,0.0011 v -0.9601 h -0.72 v 0.9601 h -0.4802 v -0.9601 h -0.72 v 0.9601 h -0.4799 v -0.9601 h -0.72 v 0.9601 h -0.4802 v -0.9601 h -0.72 v 0.9601 h -0.4799 l 0.01,-0.9598 -0.7571,-0.0014 v 0.9601 h -0.4802 v -0.9601 h -0.72 v 0.9601 l -0.3785,0.0054 v -0.9601 h -0.72 v 0.9601 h -0.4801 v -0.9601 h -0.72 v 0.9601 l -1.0976,-0.0054 -1.6433,-3.1201 h 19.2198 l -1.5143,3.1201 h -1.1457 v -0.9601 h -0.72 v 0.9601 h -0.4802 v -0.9601 h -0.72 v 0.9601 h -0.4799 v -0.9601 h -0.72 v 0.9601 z m -12.9595,-3.1201 h 19.2198"
       style="fill:none;fill-rule:evenodd;stroke:#000;stroke-width:0.216;stroke-linecap:butt;stroke-linejoin:round;stroke-dasharray:none"
       id="path1316" />
    <path
       d="m 2887.8199,19.6546 v 0.9601 l 1.6668,-0.0476 0.013,-0.9125 z"
       style="fill:#000;fill-rule:evenodd;stroke:#000;stroke-width:0.216;stroke-linecap:butt;stroke-linejoin:round;stroke-dasharray:none"
       id="path1317" />
    <path
       d="m 2897.1799,19.4145 h 4.5601 v 1.44 h -4.5601 v -1.1999 z"
       style="fill:#000;fill-rule:evenodd;stroke:#000;stroke-width:0.216;stroke-linecap:butt;stroke-linejoin:round;stroke-dasharray:none"
       id="path1318" />
    <path
       d="m 2887.8199,20.6147 h 1.6801 v -0.9601 h -1.6801 z"
       style="fill:#2a2a2b;fill-rule:evenodd;stroke:#000;stroke-width:0.216;stroke-linecap:butt;stroke-linejoin:round;stroke-dasharray:none"
       id="path1319" />
    <path
       d="m 2883.2598,33.6949 -3.3599,-1.6801 V 31.055 h 3.3599 z"
       style="fill:#000;fill-rule:evenodd;stroke:#000;stroke-width:0.216;stroke-linecap:butt;stroke-linejoin:round;stroke-dasharray:none"
       id="path1320" />
    <path
       d="m 2879.8999,30.5748 h 2.16 v -1.44 h -0.72 v 0.72 h -0.72 v -0.72 h -0.72 z"
       style="fill:#000;fill-rule:evenodd;stroke:#000;stroke-width:0.216;stroke-linecap:butt;stroke-linejoin:round;stroke-dasharray:none"
       id="path1321" />
  </g>
</svg>
