<svg id="Layer_1" enable-background="new 0 0 512 512" height="512" viewBox="0 0 512 512" width="512" xmlns="http://www.w3.org/2000/svg">
  <style type="text/css">
    .milho-color { fill: #7F8487; } 
  </style>
  <g id="_x32_4_Corn">
    <g>
      <path class="milho-color" d="m507.776 210.998c-30.318-16.276-60.342-21.17-89.52-18.518 16.059-28.318 30.702-60.816 33.449-93.097 1.588-21.329-16.814-42.174-40.55-40.55-31.829 2.709-65.056 17.506-93.02 33.491 2.644-29.168-2.255-59.183-18.531-89.498-2.826-5.266-10.909-2.607-10.031 3.321 7.747 52.475-18.461 84.119-57.671 122.049-3.045-13.904-8.098-27.924-15.661-42.011-2.813-5.254-10.91-2.619-10.031 3.321 13.702 92.758-79.973 121.943-156.555 227.678-24.046 33.146-40.856 82.076-30.223 120.459l-10.137 10.138c-10.531 10.521-10.536 27.587 0 38.112l18.207 18.207c10.546 10.546 27.602 10.521 38.112 0l11.869-11.869c38.11 8.271 83.815-7.996 115.934-31.287 105.603-76.487 134.889-170.228 227.672-156.555 6.021.822 8.533-7.241 3.321-10.031-14.086-7.563-28.108-12.616-42.012-15.66 37.936-39.218 69.579-65.405 122.055-57.667 5.994.831 8.554-7.232 3.323-10.033zm-396.754 191.676-3.092-3.092c3.642-4.827 7.547-9.854 11.682-15.083l6.493 6.494c-5.229 4.135-10.257 8.039-15.083 11.681zm26.208-40.261c.183 2.191-.413 3.8-1.772 5.159-4.137 3.765-4.171 4.854-6.884 5.668.438-.549 6.842-8.557 8.656-10.827zm.09 19.652c.843-2.758 2.022-2.878 5.7-6.93 1.336-1.279 2.96-1.964 5.177-1.768-2.013 1.608-10.336 8.265-10.877 8.698zm20.58-16.402-12.96-12.96c3.884-4.916 7.8-9.931 11.725-15.041l16.277 16.277c-5.112 3.923-10.126 7.84-15.042 11.724zm94.917-82.034c-2.467 2.467-6.758 2.467-9.225 0l-16.627-16.627c-2.521-2.574-2.521-6.651 0-9.225l4.184-4.184c2.533-2.533 6.796-2.479 9.172 0l16.681 16.681c2.521 2.521 2.521 6.597 0 9.172zm4.237-37.653c-2.467 2.413-6.705 2.413-9.172 0l-16.681-16.681c-3.629-3.629-.971-9.172.054-9.172l4.184-4.184c0-.054 0-.054.054-.054 2.367-2.474 6.514-2.551 9.118.054l16.628 16.628c2.521 2.521 2.521 6.651 0 9.172zm7.563 7.563 4.238-4.184c2.639-2.639 6.657-2.515 9.172 0l16.627 16.627c2.521 2.521 2.521 6.597.054 9.172 0 0 0 0-.054 0l-4.184 4.238c-2.342 2.342-6.651 2.521-9.172 0l-16.681-16.681c-2.534-2.534-2.481-6.692 0-9.172zm34.328-16.038-4.184 4.184c-2.467 2.467-6.758 2.467-9.225 0l-16.627-16.628c-2.574-2.521-2.574-6.651 0-9.225l4.184-4.184c2.47-2.469 6.638-2.534 9.172 0l16.681 16.681c2.534 2.534 2.48 6.691-.001 9.172zm3.379 11.8 4.184-4.184c2.638-2.638 6.766-2.511 9.172 0l16.681 16.628c2.521 2.521 2.521 6.597.054 9.118-.054.054-3.218 3.219-4.291 4.292-2.451 2.348-6.545 2.518-9.172 0l-16.628-16.681c-2.52-2.522-2.52-6.652 0-9.173zm34.275-16.091-4.184 4.238c-2.523 2.417-6.472 2.588-9.172 0l-16.681-16.627c-2.438-2.438-2.575-6.651 0-9.225l4.184-4.184c2.569-2.57 6.652-2.574 9.225 0l16.627 16.627c2.509 2.509 2.62 6.488.054 9.173h-.054zm.054-33.469c-2.521 2.574-6.651 2.574-9.172 0l-16.627-16.628c-2.574-2.521-2.574-6.651 0-9.172l4.184-4.238c2.696-2.584 6.646-2.421 9.172 0l16.681 16.681c2.541 2.657 2.471 6.701 0 9.173-4.062 4.01-4.344 4.289-4.238 4.184zm4.291-37.655c-2.574 2.521-6.705 2.521-9.225 0l-16.628-16.681c-2.521-2.521-2.521-6.544-.054-9.119 0 0 .054 0 .054-.054l4.184-4.184c.054 0 .054-.054.054-.054 2.752-2.636 6.783-2.384 9.119.054l16.681 16.627c2.521 2.574 2.521 6.651 0 9.225zm-33.416-51.009 4.184 4.184c2.547 2.547 2.446 6.727.054 9.118-.054.054-.054.054-.054.054l-4.238 4.238v.054c-2.574 2.467-6.543 2.467-9.065 0h-.054c0-.054 0-.054-.054-.054l-7.027-7.027c5.365-3.647 10.783-7.188 16.254-10.567zm-.107 41.891c2.639 2.639 2.515 6.657 0 9.172l-4.184 4.184c-2.521 2.521-6.651 2.521-9.172 0l-16.521-16.467c-.054-.054-.107-.161-.161-.215l-.054-.054c-2.414-2.574-2.414-6.597.054-9.119l4.184-4.184c2.562-2.456 6.617-2.555 9.172 0l.054.054c.054 0 .054 0 .107.054zm-30.038 21.026c0-.054 0-.054 0-.054 2.69-2.574 6.671-2.447 9.172.054l16.628 16.628c2.57 2.57 2.575 6.651 0 9.226l-4.184 4.184c-2.521 2.521-6.651 2.521-9.225 0l-16.628-16.681c-2.571-2.572-2.559-6.499-.054-9.119.054 0 .054-.054.107-.054zm-7.563-7.616c-.054 0-.054 0-.054 0l-4.184 4.184c-.054.054-.054.054-.054.054-2.574 2.521-6.544 2.521-9.119 0l-13.248-13.195c4.828-3.862 9.763-7.778 15.019-11.855 1.196 1.201-4.331-4.351 11.693 11.747 2.415 2.521 2.361 6.544-.053 9.065zm-20.972 11.853 16.627 16.681c2.467 2.361 2.681 6.491 0 9.172l-4.184 4.184c-2.467 2.467-6.705 2.467-9.172 0l-16.681-16.627c-2.521-2.574-2.521-6.705 0-9.225l4.238-4.184c2.368-2.472 6.63-2.543 9.172-.001zm-28.636 55.201 3.372 3.372c2.521 2.574 2.521 6.651 0 9.225l-4.238 4.184c-1.848 1.889-4.783 2.305-7.171 1.301 2.899-5.965 5.587-11.993 8.037-18.082zm-13.376 28.58 12.458 12.499c2.521 2.521 2.521 6.651 0 9.172l-4.184 4.184c-2.521 2.574-6.651 2.574-9.172 0l-8.772-8.736c3.373-5.636 6.605-11.344 9.67-17.119zm-21.817 37.709 4.184-4.184c2.542-2.542 6.803-2.471 9.172 0l16.681 16.681c2.521 2.521 2.521 6.651 0 9.172l-4.184 4.184c-2.574 2.521-6.651 2.521-9.225 0l-16.628-16.681c-2.521-2.521-2.521-6.652 0-9.172zm-10.523 13.881 2.853 2.853c2.625 2.626 2.511 6.603.054 9.172-.054 0-.054 0-.054 0l-4.184 4.184c-2.521 2.574-6.651 2.574-9.172 0l-.78-.78c3.796-5.059 7.563-10.203 11.283-15.429zm7.075 33.787-.79-.79c-2.521-2.521-2.521-6.651 0-9.172l4.184-4.184c2.425-2.53 6.66-2.621 9.172 0l2.862 2.862c-5.225 3.72-10.369 7.489-15.428 11.284zm49.9-33.952-8.744-8.781c-2.574-2.521-2.574-6.651 0-9.172l4.184-4.184c2.407-2.513 6.536-2.636 9.173 0l12.507 12.467c-5.776 3.065-11.484 6.296-17.12 9.67zm27.596-15.002c-1.041-2.378-.625-5.252 1.313-7.189l4.184-4.238c2.607-2.498 6.612-2.503 9.225 0l3.381 3.381c-6.095 2.454-12.131 5.146-18.103 8.046zm80.911-44.252c-2.521-2.521-2.467-6.597 0-9.119 0 0 0 0 .054-.054l4.184-4.184c2.647-2.647 6.636-2.482 9.065-.054h.054c.054.054.107.107.215.161l11.479 11.479c-4.077 5.256-7.992 10.245-11.801 15.019zm21.08-20.919c-4.217-4.163-4.129-4.077-16.788-16.735-2.521-2.521-2.521-6.651 0-9.172l4.184-4.184c.1-.038 4.89-4.468 9.172 0l16.681 16.628c2.476 2.475 2.541 6.632 0 9.172-2.382 2.326-4.292 4.191-4.292 4.292-2.52 2.412-6.436 2.412-8.957-.001zm13.248-37.761c-2.521 2.521-6.651 2.521-9.118 0l-16.681-16.627c-2.521-2.574-2.521-6.651 0-9.225l4.184-4.184c2.507-2.507 6.717-2.509 9.225 0l16.628 16.681c2.521 2.521 2.521 6.597.054 9.119-.131 0-4.177 4.236-4.292 4.236zm7.617 7.617 4.238-4.238c2.775-2.66 6.823-2.349 9.172 0l4.184 4.184c-3.379 5.471-6.92 10.889-10.566 16.252l-7.027-7.081h-.054c-2.468-2.52-2.414-6.596.053-9.117zm4.238-28.589c-2.467-2.521-2.467-6.597 0-9.119 4.062-4.01 4.344-4.289 4.238-4.184 2.505-2.505 6.669-2.504 9.172 0l15.287 15.286c-2.843 5.31-5.9 10.781-9.172 16.36-1.02-.322-2.038-.858-2.843-1.663zm34.328-25.211v.054l-4.184 4.184s0 0-.054 0c-2.467 2.467-6.705 2.467-9.172 0l-16.628-16.627c-2.521-2.574-2.521-6.651 0-9.225l4.184-4.184c2.607-2.498 6.612-2.503 9.225 0l16.628 16.681c2.521 2.52 2.521 6.597.001 9.117zm11.853-12.443-4.238-4.238c-2.467-2.574-2.467-6.651.054-9.173l4.184-4.184c1.691-1.691 4.293-2.169 5.686-1.77-1.448 6.223-3.325 12.66-5.686 19.365zm.054-51.064 3.915-3.969c3.433 5.042 5.149 10.942 4.72 16.681-.161 1.502-.322 3.057-.482 4.613-2.637-2.637-5.064-5.064-8.26-8.26-2.414-2.52-2.414-6.597.107-9.065zm-20.383-16.251c5.846-.482 11.747 1.233 16.735 4.666l-3.969 3.969c-2.467 2.521-6.544 2.521-9.119.054-.054-.054-.107-.054-.107-.107l-8.153-8.153c1.556-.162 3.112-.322 4.613-.429zm-13.087 16.251c2.614-2.5 6.5-2.504 9.119 0 39.51 39.513-6.512-6.518 16.735 16.736 2.467 2.521 2.467 6.597-.054 9.118v.054l-4.184 4.13v.054c-2.467 2.413-6.705 2.467-9.172 0l-16.681-16.681c-2.461-2.46-2.561-6.558 0-9.118 0-.015 4.237-4.183 4.237-4.293zm-5.847-13.248c.375 1.985-.215 4.13-1.77 5.686-.099.1-4.463 4.52-4.184 4.238-2.574 2.521-6.597 2.521-9.119 0l-4.345-4.291c6.706-2.361 13.197-4.238 19.418-5.633zm-36.098 21.777c2.382-2.326 4.292-4.191 4.292-4.292 2.68-2.567 6.845-2.319 9.119.054l16.681 16.627c2.521 2.574 2.521 6.651 0 9.225l-4.184 4.184c-2.467 2.467-6.758 2.467-9.225 0l-16.627-16.627c-2.523-2.52-2.523-6.596-.056-9.171zm.002 33.416c2.701-2.588 6.681-2.435 9.172.054l16.627 16.628c2.574 2.521 2.574 6.651.054 9.172-.1 0-4.137 4.083-4.238 4.184-2.467 2.467-6.705 2.467-9.172 0l-16.681-16.628c-2.467-2.521-2.521-6.597 0-9.118 4.061-4.11 4.338-4.392 4.238-4.292zm-22.905-32.021 15.287 15.286c2.574 2.574 2.574 6.597.054 9.173-.099.1-4.191 4.238-4.292 4.238-2.521 2.521-6.543 2.521-9.065 0l-16.681-16.681-.054-.054-.054-.054c-.751-.751-1.287-1.663-1.556-2.736 5.473-3.272 10.89-6.276 16.361-9.172zm-32.833-61.764c6.999 22.042 8.065 43.938 5.022 65.418-10.886 4.092-58.01 40.105-71.224 50.839-.214-3.081-.523-6.17-.928-9.265 35.444-33.896 63.398-63.9 67.13-106.992zm-242.904 289.507c67.969-93.833 152.829-128.53 159.54-206.144 39.322 123.837-106.36 243.51-139.149 306.95-.538.538-37.202 37.197-35.482 35.477-31.682-35.304-12.571-98.137 15.091-136.283zm-.309 173.034c-6.129 6.129-16.814 6.129-22.943 0l-18.207-18.207c-6.338-6.338-6.341-16.602 0-22.943l6.575-6.575c7.707 16.942 24.487 33.126 42.292 40.009zm335.23-203.797c-77.629 6.731-112.268 91.554-206.139 159.54-38.105 27.627-100.951 46.791-136.289 15.091 1.049-1.049 37.753-37.748 35.482-35.477 63.362-32.748 183.228-178.433 306.946-139.154zm-23.626-16.232c-3.098-.405-6.19-.716-9.274-.928 11.091-13.625 47.005-61.149 50.846-71.214 21.48-3.043 43.375-1.979 65.419 5.016-43.098 3.726-73.097 31.679-106.991 67.126z"/></g></g></svg>