<?xml version="1.0" encoding="UTF-8" standalone="no"?>
<svg
   version="1.1"
   width="0.34003705in"
   height="0.44984373in"
   viewBox="0 0 24.482697 32.388813"
   id="svg1480"
   xmlns="http://www.w3.org/2000/svg"
   xmlns:svg="http://www.w3.org/2000/svg">
  <defs
     id="defs1480" />
  <g
     id="Layer1005"
     transform="translate(-2768.561,-423.78631)">
    <path
       d="m 2786.63,454.4265 -3.2068,-1.874 -3.2068,-1.874 h 6.4136 6.4135 l -3.2068,1.874 z"
       style="fill:#000;fill-rule:evenodd"
       id="path77" />
    <path
       d="m 2793.0435,449.0924 v -2.9967 h -11.3432 l -1.4839,1.4838 v 1.5129 z"
       style="fill:#000;fill-rule:evenodd"
       id="path78" />
    <path
       d="m 2780.9128,456.1751 v 0 q 0.6964,0 0.6964,-0.6964 v -4.846 q 0,-0.6964 -0.6964,-0.6964 v 0 q -0.6964,0 -0.6964,0.6964 v 4.846 q 0,0.6964 0.6964,0.6964 z"
       style="fill:#000;fill-rule:evenodd"
       id="path79" />
    <path
       d="m 2792.3472,456.1751 v 0 q 0.6964,0 0.6964,-0.6964 v -4.846 q 0,-0.6964 -0.6964,-0.6964 v 0 q -0.6964,0 -0.6964,0.6964 v 4.846 q 0,0.6964 0.6964,0.6964 z"
       style="fill:#000;fill-rule:evenodd"
       id="path80" />
    <path
       d="m 2793.0435,445.082 v -2.9967 h -11.1281 v 2.9967 z"
       style="fill:#000;fill-rule:evenodd"
       id="path81" />
    <path
       d="m 2793.0435,441.0716 v -2.9967 h -9.0988 l -2.0293,2.0294 v 0.9673 z"
       style="fill:#000;fill-rule:evenodd"
       id="path82" />
    <path
       d="m 2793.0434,437.1111 v -2.9967 h -6.9634 v 2.9967 z"
       style="fill:#000;fill-rule:evenodd"
       id="path83" />
    <path
       d="m 2793.0434,433.186 v -2.9967 h -6.9634 v 2.9967 z"
       style="fill:#000;fill-rule:evenodd"
       id="path84" />
    <path
       d="m 2793.0436,429.4302 v -2.9967 h -4.2577 l -2.7058,2.7058 v 0.2909 z"
       style="fill:#000;fill-rule:evenodd"
       id="path85" />
    <path
       d="m 2775.2726,428.0718 c 0.6732,0 3.2315,4.1699 3.2315,5.9918 0,1.8219 -1.477,3.2989 -3.2989,3.2989 -1.8219,0 -3.2989,-1.477 -3.2989,-3.2989 0,-1.8219 2.6931,-5.9918 3.3663,-5.9918 z"
       style="fill:#000;fill-rule:evenodd"
       id="path86" />
    <path
       d="m 2779.5337,427.418 c 0.3366,0 1.6156,2.0849 1.6156,2.9959 0,0.9109 -0.7384,1.6494 -1.6493,1.6494 -0.911,0 -1.6494,-0.7385 -1.6494,-1.6494 0,-0.911 1.3465,-2.9959 1.6831,-2.9959 z"
       style="fill:#000;fill-rule:evenodd"
       id="path87" />
    <path
       d="m 2773.6014,434.2818 c 0.2765,1.133 0.6347,1.2438 1.4708,1.4827"
       style="fill:#000;fill-rule:evenodd;stroke:#000;stroke-width:1.9199;stroke-linecap:round;stroke-linejoin:miter;stroke-dasharray:none"
       id="path88" />
    <path
       d="m 2778.633,430.6216 c 0.1383,0.5664 0.3174,0.6218 0.7353,0.7412"
       style="fill:#000;fill-rule:evenodd;stroke:#000;stroke-width:0.9601;stroke-linecap:round;stroke-linejoin:miter;stroke-dasharray:none"
       id="path89" />
    <path
       d="m 2779.3258,456.1751 h -10.765 v -6.3702 l 2.2258,-2.2254 h 8.5392 z m -4.0011,-5.5592 h 1.9851 c 0.4334,0 0.7881,0.3546 0.7881,0.7882 v 1.7343 h -3.5614 v -1.7343 c 0,-0.4336 0.3548,-0.7882 0.7882,-0.7882 z m -4.6005,0 h 1.9851 c 0.4334,0 0.7881,0.3546 0.7881,0.7882 v 1.7343 h -3.5613 v -1.7343 c 0,-0.4336 0.3547,-0.7882 0.7881,-0.7882 z"
       style="fill:#000;fill-rule:evenodd"
       id="path90" />
    <path
       d="m 2780.2164,451.1617 v -1.3355 h 12.8272 v 1.3355 z"
       style="fill:#000;fill-rule:evenodd"
       id="path91" />
    <path
       d="m 2775.2376,448.4908 v -6.121 l 0.4823,0.4823 h 0.9647 l 0.4824,-0.4823 v 6.121 z"
       style="fill:#000;fill-rule:evenodd;stroke:#000;stroke-width:0.9601;stroke-linecap:butt;stroke-linejoin:miter;stroke-dasharray:none"
       id="path92" />
    <path
       d="m 2789.7274,427.101 v -3.3147 l 0.4953,0.4953 h 0.9906 l 0.4953,-0.4953 v 3.3147 z"
       style="fill:#000;fill-rule:evenodd"
       id="path93" />
  </g>
</svg>
