<svg height="512" viewBox="0 0 21.437 22.425" width="512" xmlns="http://www.w3.org/2000/svg">
  <style type="text/css">
    .sorgo-color { fill: #7F8487; } 
  </style>
  <g id="Layer_2" data-name="Layer 2">
    <g id="Layer_1-2" data-name="Layer 1">
      <path class="sorgo-color" d="m19.58 10.453a4.323 4.323 0 0 0 -2.616-.806c1.349-4.123-1.206-10.047-5.334-9.626-3.752.3-5.309 4.873-4.566 8.321-3.84-1.575-8.105 1.158-6.836 5.465 1 3.688 6.008 7.047 9.708 5.6a4.312 4.312 0 0 0 1.576 2.2c5.999 3.939 13.454-7.352 8.068-11.154zm-7.726-9.761c3.612-.174 5.725 5.469 4.381 9.016a6.27 6.27 0 0 0 -2.59 1.035 6.062 6.062 0 0 0 -1.286-4.077 5.537 5.537 0 0 1 -.505-5.974zm-4.261 6.5c-.193-2.709.859-5.647 3.442-6.383a6.3 6.3 0 0 0 .806 6.3 5.46 5.46 0 0 1 1.088 4.169 9.014 9.014 0 0 0 -1.058 1.048 9.408 9.408 0 0 0 -4.052-3.672 8.694 8.694 0 0 1 -.226-1.46zm-2.893 1.395c3.963-.163 8.8 4.959 6.944 8.429a6.3 6.3 0 0 0 -5.272-3.536 5.534 5.534 0 0 1 -4.827-3.546 4 4 0 0 1 3.155-1.347zm-1.068 8.828c-2.165-1.641-3.687-4.365-2.54-6.793a6.3 6.3 0 0 0 5.269 3.536 5.54 5.54 0 0 1 4.827 3.542c-1.58 1.879-4.851 1.771-7.556-.285zm6.949 1.685a4.622 4.622 0 0 0 1.619-6.121c1.616-1.969 4.058-3.334 6.422-2.3a6.3 6.3 0 0 0 -3.418 5.354 5.538 5.538 0 0 1 -3.431 4.909 3.62 3.62 0 0 1 -1.192-1.842zm8.623-.421c-1.59 2.2-4.277 3.787-6.731 2.7a6.3 6.3 0 0 0 3.412-5.351 5.535 5.535 0 0 1 3.43-4.91c1.912 1.531 1.885 4.806-.115 7.557z" data-name="coffee beans"/>
    </g>
  </g>
</svg>
