<?xml version="1.0" encoding="UTF-8" standalone="no"?>
<svg
   version="1.1"
   width="0.3768743in"
   height="0.42200977in"
   viewBox="0 0 27.134982 30.384764"
   id="svg1480"
   xmlns="http://www.w3.org/2000/svg"
   xmlns:svg="http://www.w3.org/2000/svg">
  <defs
     id="defs1480" />
  <g
     id="Layer1011"
     transform="translate(-2768.4806,-641.03796)">
    <path
       d="m 2776.9872,641.038 4.2533,2.7821 4.2534,2.7821 h -8.5067 -8.5066 l 4.2533,-2.7821 z"
       style="fill:#000;fill-rule:evenodd"
       id="path199" />
    <path
       d="m 2768.4806,647.6426 v 3.6946 h 17.0133 v -3.6946 z"
       style="fill:#000;fill-rule:evenodd"
       id="path200" />
    <path
       d="m 2768.4806,652.587 v 3.6946 h 17.0133 v -3.6946 z"
       style="fill:#000;fill-rule:evenodd"
       id="path201" />
    <path
       d="m 2768.4806,657.5314 v 3.6946 h 17.0133 v -3.6946 z"
       style="fill:#000;fill-rule:evenodd"
       id="path202" />
    <path
       d="m 2768.4806,662.4757 v 3.6946 h 17.0133 v -3.6946 z"
       style="fill:#000;fill-rule:evenodd"
       id="path203" />
    <path
       d="m 2768.4806,667.4201 v 3.6946 h 17.0133 v -3.6946 z"
       style="fill:#000;fill-rule:evenodd"
       id="path204" />
    <path
       d="m 2792.7687,663.424 c 1.3265,0.617 2.2469,1.9603 2.2469,3.5195 0,2.1427 -1.7366,3.8793 -3.8794,3.8793 -2.1428,0 -3.8793,-1.7366 -3.8793,-3.8793 0,-1.5592 0.9203,-2.9025 2.2468,-3.5195 v -11.7216 c 0,-0.8985 0.734,-1.6324 1.6312,-1.6324 v 0 c 0.8998,0 1.6338,0.7339 1.6338,1.6324 z"
       style="fill:none;fill-rule:evenodd;stroke:#000;stroke-width:1.1999;stroke-linecap:butt;stroke-linejoin:miter;stroke-dasharray:none"
       id="path205" />
    <path
       d="m 2792.7693,654.3594 h 2.1762"
       style="fill:#000;fill-rule:evenodd;stroke:#000;stroke-width:1.1999;stroke-linecap:butt;stroke-linejoin:miter;stroke-dasharray:none"
       id="path206" />
    <path
       d="m 2792.7693,656.5368 h 2.1762"
       style="fill:#000;fill-rule:evenodd;stroke:#000;stroke-width:1.1999;stroke-linecap:butt;stroke-linejoin:miter;stroke-dasharray:none"
       id="path207" />
    <path
       d="m 2792.7693,658.7143 h 2.1762"
       style="fill:#000;fill-rule:evenodd;stroke:#000;stroke-width:1.1999;stroke-linecap:butt;stroke-linejoin:miter;stroke-dasharray:none"
       id="path208" />
    <path
       d="m 2792.7693,660.8918 h 2.1762"
       style="fill:#000;fill-rule:evenodd;stroke:#000;stroke-width:1.1999;stroke-linecap:butt;stroke-linejoin:miter;stroke-dasharray:none"
       id="path209" />
    <path
       d="m 2791.1369,664.7669 a 2.1773,2.1773 0 0 1 2.1773,2.1773 2.1773,2.1773 0 1 1 -2.1773,-2.1773 z"
       style="fill:#000;fill-rule:evenodd;stroke:#000;stroke-width:0.9601;stroke-linecap:butt;stroke-linejoin:miter;stroke-dasharray:none"
       id="path210" />
    <path
       d="M 2791.1362,664.5796 V 654.52"
       style="fill:#000;fill-rule:evenodd;stroke:#000;stroke-width:1.1999;stroke-linecap:butt;stroke-linejoin:miter;stroke-dasharray:none"
       id="path211" />
  </g>
</svg>
