<?xml version="1.0" encoding="iso-8859-1"?>
<!-- Generator: Adobe Illustrator 19.0.0, SVG Export Plug-In . SVG Version: 6.00 Build 0)  -->
<svg version="1.1" id="Layer_1" xmlns="http://www.w3.org/2000/svg" xmlns:xlink="http://www.w3.org/1999/xlink" x="0px" y="0px"
	 viewBox="0 0 511.999 511.999" style="enable-background:new 0 0 511.999 511.999;" xml:space="preserve" class="trigo-color">
    <style type="text/css">
      .trigo-color { fill: #7F8487; }
    </style>
<g>
	<g>
		<path class="trigo-color" d="M507.607,176.356c-5.857-5.858-15.355-5.858-21.213,0l-28.792,28.792c-14.039-10.315-31.012-17.59-49.609-21.447
			c2.166-1.955,4.3-3.97,6.39-6.059c31.997-31.997,48.398-73.42,43.873-110.808c-0.83-6.856-6.233-12.259-13.089-13.089
			c-37.386-4.523-78.811,11.875-110.808,43.873c-2.088,2.088-4.107,4.219-6.061,6.384c-3.858-18.595-11.132-35.566-21.446-49.603
			l28.792-28.792c5.858-5.858,5.858-15.355,0-21.213c-5.857-5.858-15.355-5.858-21.213,0l-37.311,37.31
			c-31.46,19.56-53.558,57.259-59.263,101.335c-0.496,3.832-0.85,7.648-1.084,11.441c-4.029-6.301-8.61-12.11-13.727-17.313
			c-4.842-4.923-12.42-5.904-18.357-2.376c-32.375,19.241-55.17,57.52-60.979,102.396c-0.496,3.832-0.85,7.647-1.084,11.441
			c-4.029-6.301-8.61-12.11-13.727-17.313c-4.842-4.923-12.42-5.905-18.357-2.376c-32.375,19.241-55.17,57.52-60.979,102.396
			c-5.172,39.958,4.023,78.276,24.741,105.151l-49.91,49.907c-5.858,5.858-5.858,15.355,0,21.213
			c2.928,2.929,6.767,4.393,10.606,4.393s7.678-1.464,10.606-4.394l49.902-49.902c21.945,16.918,51.521,26.149,83.394,26.149
			c7.157,0,14.437-0.466,21.763-1.414c44.876-5.809,83.155-28.604,102.396-60.979c3.528-5.937,2.547-13.515-2.376-18.357
			c-5.202-5.117-11.009-9.696-17.309-13.725c3.792-0.234,7.606-0.591,11.437-1.087c44.876-5.808,83.155-28.604,102.396-60.979
			c3.528-5.937,2.547-13.515-2.376-18.357c-5.202-5.117-11.009-9.696-17.309-13.725c3.792-0.234,7.606-0.591,11.437-1.087
			c44.076-5.705,81.775-27.804,101.335-59.263l37.311-37.311C513.464,191.711,513.464,182.214,507.607,176.356z M330.091,157.564
			c0.18-1.394,0.343-2.787,0.489-4.177c6.062-12.251,14.515-24.081,24.99-34.557c21.427-21.427,48.51-34.417,73.306-35.708
			c-1.292,24.794-14.282,51.88-35.708,73.306c-10.476,10.476-22.305,18.928-34.556,24.989c-1.391,0.146-2.784,0.309-4.179,0.489
			c-10.972,1.42-21.545,3.862-31.547,7.205C326.229,179.11,328.671,168.536,330.091,157.564z M247.608,146.889
			c3.89-30.05,17.412-56.874,36.261-73.034c14.114,20.427,20.361,49.81,16.471,79.86c-3.168,24.478-12.729,46.813-26.353,62.99
			c-3.56,3.141-6.897,6.453-9.989,9.924C249.942,206.208,243.726,176.882,247.608,146.889z M235.944,251.713
			c0.496-3.832,0.85-7.647,1.084-11.44c4.029,6.301,28.397,30.669,34.699,34.698c-3.793,0.234-7.609,0.588-11.441,1.084
			c-10.972,1.42-21.545,3.862-31.547,7.205C232.082,273.259,234.524,262.685,235.944,251.713z M153.46,241.037
			c3.889-30.05,17.411-56.874,36.26-73.034c14.114,20.427,20.361,49.81,16.472,79.859c-3.168,24.478-12.729,46.814-26.354,62.991
			c-3.56,3.141-6.896,6.452-9.987,9.923C155.794,300.355,149.577,271.029,153.46,241.037z M141.796,345.862
			c0.496-3.832,0.85-7.647,1.084-11.441c4.029,6.301,28.398,30.67,34.7,34.699c-3.794,0.233-7.61,0.587-11.443,1.083
			c-8.454,1.094-16.673,2.792-24.575,5.043c-0.594-0.953-3.856-4.215-4.809-4.809C139.004,362.535,140.702,354.316,141.796,345.862z
			 M75.703,414.925c-14.056-20.422-20.273-49.748-16.391-79.74c3.89-30.05,17.411-56.874,36.261-73.034
			c14.114,20.426,20.361,49.81,16.471,79.86c-3.168,24.477-12.728,46.813-26.353,62.99
			C82.132,408.142,78.794,411.453,75.703,414.925z M176.814,452.687c-30.037,3.889-59.409-2.353-79.834-16.455l9.338-9.338
			c16.228-13.935,38.846-23.727,63.671-26.94c30.052-3.887,59.433,2.357,79.86,16.471
			C233.689,435.276,206.864,448.797,176.814,452.687z M270.962,358.539c-30.054,3.888-59.433-2.357-79.859-16.471
			c16.16-18.85,42.984-32.371,73.034-36.261c30.048-3.891,59.433,2.357,79.859,16.472
			C327.836,341.128,301.012,354.65,270.962,358.539z M365.109,264.391c-30.049,3.889-59.433-2.357-79.86-16.471
			c16.16-18.85,42.984-32.371,73.034-36.261c30.052-3.889,59.434,2.357,79.86,16.471
			C421.984,246.98,395.159,260.501,365.109,264.391z"/>
	</g>
</g>
</svg>
