<svg fill="#ebebeb" id="Layer_1" height="512" viewBox="0 0 64 64" width="512" xmlns="http://www.w3.org/2000/svg" data-name="Layer 1"><path d="m57.036 19.448a27.995 27.995 0 0 1 -43.406 33.668l2.1-2.224a1 1 0 0 0 -.561-1.672l-7.111-1.206a1 1 0 0 0 -1.142 1.211l1.621 7.026a1 1 0 0 0 .713.741 1.024 1.024 0 0 0 .262.034 1 1 0 0 0 .727-.314l2.019-2.14a30 30 0 0 0 46.565-36.02zm-46.97 34.533-.866-3.744 3.788.642z"/><path d="m6.964 44.552a27.995 27.995 0 0 1 43.406-33.668l-2.1 2.224a1 1 0 0 0 .561 1.672l7.109 1.206a.949.949 0 0 0 .167.014 1 1 0 0 0 .975-1.225l-1.619-7.026a1 1 0 0 0 -1.7-.461l-2.019 2.14a30 30 0 0 0 -46.567 36.02zm46.97-34.533.864 3.744-3.788-.642z"/><path d="m51.342 20.162c-.541-.089-13.29-2.105-20.114 4.721a14.222 14.222 0 0 0 -2.107 2.707c-6.082-5.458-16.18-4.313-16.619-4.258a1 1 0 0 0 -.873.873c-.054.45-1.267 11.1 4.726 17.116 4.132 4.113 10.436 4.852 14.41 4.852.312 0 .6-.007.882-.014.194 0 .383.008.585.008 4.465 0 10.979-.833 15.213-5.066 6.826-6.826 4.81-19.576 4.72-20.116a1 1 0 0 0 -.823-.823zm-25.17 19.126a35.829 35.829 0 0 0 .182 4.526 15.679 15.679 0 0 1 -8.585-3.908c-4.416-4.432-4.365-12.149-4.218-14.653 2.492-.146 10.172-.2 14.61 4.179a23.754 23.754 0 0 0 -1.824 7.194l-5.6-5.6-1.414 1.414zm19.859.4c-4.574 4.573-12.564 4.638-16.317 4.376l13.286-13.291-1.41-1.414-13.32 13.32c-.27-3.724-.232-11.779 4.372-16.379 5.228-5.229 14.92-4.564 17.646-4.256.312 2.721.982 12.404-4.257 17.643z"/></svg>