<svg id="Capa_1" enable-background="new 0 0 512.095 512.095" height="512" viewBox="0 0 512.095 512.095" width="512" xmlns="http://www.w3.org/2000/svg"><g><path d="m276.048 211.458c0-11.046-8.954-20-20-20s-20 8.954-20 20v75.923c0 11.046 8.954 20 20 20s20-8.954 20-20z"/><path d="m275.178 352.826c-2.415-7.851-9.539-13.57-17.75-14.139-8.368-.58-16.385 4.313-19.722 11.999-3.327 7.663-1.421 16.834 4.672 22.545 6.123 5.739 15.517 7.035 22.947 3.111 8.381-4.426 12.633-14.413 9.853-23.516z"/><path d="m500.812 363.162-8.702-14.534c-5.676-9.477-17.957-12.561-27.434-6.885-9.477 5.674-12.56 17.956-6.885 27.434l8.701 14.533c7.208 12.039 7.381 26.513.463 38.718-6.953 12.266-19.542 19.589-33.675 19.589h-354.466c-14.133 0-26.722-7.323-33.674-19.589-6.918-12.205-6.745-26.679.462-38.718l176.126-294.18c7.292-12.181 20.122-19.452 34.319-19.452 14.198 0 27.028 7.271 34.32 19.452l114.992 192.07c5.675 9.478 17.959 12.561 27.434 6.886 9.478-5.674 12.561-17.956 6.886-27.433l-114.993-192.069c-14.586-24.361-40.245-38.906-68.64-38.905-28.394 0-54.052 14.544-68.638 38.905l-176.125 294.179c-14.704 24.56-15.056 54.088-.941 78.989 14.149 24.962 39.746 39.864 68.473 39.864h354.467c28.727 0 54.324-14.902 68.473-39.864 14.113-24.9 13.761-54.429-.943-78.99z"/></g></svg>